<svg xmlns="http://www.w3.org/2000/svg" viewBox="0 0 500 500"><g id="freepik--Floor--inject-36"><path id="freepik--floor--inject-36" d="M76.22,270.57c-96,51-96,133.57,0,184.52s251.59,51,347.56,0,96-133.56,0-184.52S172.19,219.62,76.22,270.57Z" style="fill:#fafafa"></path></g><g id="freepik--Shadows--inject-36"><ellipse id="freepik--Shadow--inject-36" cx="79.97" cy="331.73" rx="51.3" ry="29.62" style="fill:#e0e0e0"></ellipse><path id="freepik--shadow--inject-36" d="M347,469.57l-41-23.64c-2-1.13-2-3,0-4.09l116.14-67.06a7.82,7.82,0,0,1,7.08,0l41,23.64c1.95,1.13,1.95,3,0,4.09L354.06,469.57A7.84,7.84,0,0,1,347,469.57Z" style="fill:#e0e0e0"></path><path id="freepik--shadow--inject-36" d="M464.7,334.39,203.27,485.73a6.93,6.93,0,0,1-6.3,0L39.11,394.35c-1.74-1-1.74-2.64,0-3.64L301,239.5a7,7,0,0,1,6.3,0l157.4,91.25C466.44,331.75,466.44,333.39,464.7,334.39Z" style="fill:#e0e0e0"></path><path id="freepik--shadow--inject-36" d="M477.24,246.93l-75.33,43.73a6.93,6.93,0,0,1-6.3,0l-101.05-58.6c-1.74-1-1.74-2.64,0-3.65l75.8-43.6a7,7,0,0,1,6.3,0l100.58,58.46C479,244.29,479,245.93,477.24,246.93Z" style="fill:#e0e0e0"></path></g><g id="freepik--Letters--inject-36"><g id="freepik--letters--inject-36"><path d="M308.81,41.29,307.7,49.1a2,2,0,0,1-.23.66.66.66,0,0,1-.53.31l-2,.29a.76.76,0,0,1-.62-.16,1.3,1.3,0,0,1-.38-.57l-5.43-15.39a1.43,1.43,0,0,1-.05-.2.67.67,0,0,1,.13-.51.66.66,0,0,1,.45-.26l1.86-.26a.81.81,0,0,1,.5.08.78.78,0,0,1,.37.48l3.6,10.35.92-7a1.84,1.84,0,0,1,.18-.48.71.71,0,0,1,.6-.37l2.06-.29a.73.73,0,0,1,.68.19,1.67,1.67,0,0,1,.3.42l2.79,6.44.62-10.94a.79.79,0,0,1,.23-.57.94.94,0,0,1,.46-.22l1.85-.26a.71.71,0,0,1,.78.59v.2l-1,16.29a1.26,1.26,0,0,1-.2.66.78.78,0,0,1-.56.32l-2,.28a.68.68,0,0,1-.6-.16,2,2,0,0,1-.4-.57Z" style="fill:#f0f0f0"></path><path d="M426.28,30.94a.67.67,0,0,1,.52,0,.69.69,0,0,1,.39.36.64.64,0,0,1,.05.23l-1.08,12.11,2.31,5.07a.67.67,0,0,1,0,.52.69.69,0,0,1-.36.39l-1.84.84a.7.7,0,0,1-.91-.34L423.07,45l-9.85-7.13a.58.58,0,0,1-.15-.19.67.67,0,0,1,0-.52.66.66,0,0,1,.35-.38l1.73-.79a1,1,0,0,1,.8-.08,1.39,1.39,0,0,1,.43.21L423.09,41l.76-8.23a1.23,1.23,0,0,1,.12-.48,1,1,0,0,1,.58-.54Z" style="fill:#f0f0f0"></path><path d="M475.53,54.3a.74.74,0,0,1,.47.36.74.74,0,0,1,.09.58l-2.8,11.4a9.34,9.34,0,0,1-1.27,3,6.63,6.63,0,0,1-2.09,2,7,7,0,0,1-2.88.93,11.9,11.9,0,0,1-7-1.72A7,7,0,0,1,458,68.72a6.38,6.38,0,0,1-.89-2.76,9.6,9.6,0,0,1,.27-3.23l2.81-11.41a.75.75,0,0,1,.35-.47.74.74,0,0,1,.58-.09l2.26.55a.75.75,0,0,1,.47.35.77.77,0,0,1,.09.59l-2.77,11.26a5.85,5.85,0,0,0-.17,2,3.41,3.41,0,0,0,.54,1.53,3.32,3.32,0,0,0,1.15,1.08,5.75,5.75,0,0,0,1.64.66,6,6,0,0,0,1.76.18,3.56,3.56,0,0,0,1.54-.42,3.76,3.76,0,0,0,1.2-1.1,5.67,5.67,0,0,0,.8-1.87l2.77-11.27a.72.72,0,0,1,.35-.47.74.74,0,0,1,.58-.09Z" style="fill:#f0f0f0"></path><path d="M278.1,111.35a13.21,13.21,0,0,1,4.18,1.56,8.46,8.46,0,0,1,2.66,2.51,8.3,8.3,0,0,1,1.27,3.32,13.36,13.36,0,0,1,0,4,47.21,47.21,0,0,1-1.05,5,13.29,13.29,0,0,1-1.6,3.66,8.32,8.32,0,0,1-2.48,2.53,8.44,8.44,0,0,1-3.39,1.23,12.66,12.66,0,0,1-4.35-.24l-8.47-1.78a.89.89,0,0,1-.58-.41.88.88,0,0,1-.13-.69l4.57-21.69a.89.89,0,0,1,.41-.58.88.88,0,0,1,.69-.13Zm3.56,10.42a7.24,7.24,0,0,0,0-2.08,4.68,4.68,0,0,0-.7-1.83,4.86,4.86,0,0,0-1.51-1.44,7.12,7.12,0,0,0-2.4-.91l-4.5-1-3.19,15.11,4.67,1a7,7,0,0,0,2.47.12,4.81,4.81,0,0,0,1.9-.71,4.51,4.51,0,0,0,1.36-1.39,7.16,7.16,0,0,0,.85-1.93C281,125.1,281.39,123.45,281.66,121.77Z" style="fill:#f0f0f0"></path><path d="M115.92,195.75a7.58,7.58,0,0,1-.41-2.65,5.78,5.78,0,0,1,.6-2.39,6.33,6.33,0,0,1,1.65-2,10.94,10.94,0,0,1,6.17-2.19,6.82,6.82,0,0,1,2.47.48,4.4,4.4,0,0,1,1.59,1.07,5.08,5.08,0,0,1,.82,1.14.55.55,0,0,1,0,.5.68.68,0,0,1-.38.33l-1.82.67a.62.62,0,0,1-.44,0,.85.85,0,0,1-.31-.18l-.38-.31a2.74,2.74,0,0,0-.84-.4,4.41,4.41,0,0,0-1.3-.19,5.11,5.11,0,0,0-1.78.36,4.13,4.13,0,0,0-2.37,1.9,3.56,3.56,0,0,0-.18,2.84c.18.58.39,1.19.62,1.85s.48,1.25.72,1.81a3.76,3.76,0,0,0,2.07,2.32,4.39,4.39,0,0,0,3-.15,6.24,6.24,0,0,0,1.46-.74,3.34,3.34,0,0,0,1-1,2.85,2.85,0,0,0,.4-1.35,4.54,4.54,0,0,0-.32-1.74l-.06-.18-2.75,1a.64.64,0,0,1-.49,0,.66.66,0,0,1-.34-.36l-.58-1.6a.6.6,0,0,1,0-.49.63.63,0,0,1,.36-.34l5.17-1.9a.62.62,0,0,1,.5,0,.59.59,0,0,1,.33.36l.91,2.47a7.63,7.63,0,0,1,.49,2.64,5.6,5.6,0,0,1-.57,2.43,6.18,6.18,0,0,1-1.67,2.06,9.21,9.21,0,0,1-2.82,1.56,9.39,9.39,0,0,1-3.13.64,6.11,6.11,0,0,1-2.55-.49,5.73,5.73,0,0,1-2-1.48,8,8,0,0,1-1.39-2.31c-.12-.28-.25-.59-.38-.93s-.27-.7-.4-1-.26-.72-.38-1.07S116,196,115.92,195.75Z" style="fill:#f0f0f0"></path><path d="M212.05,97.73a.82.82,0,0,1,.65,0,.85.85,0,0,1,.5.43l1,2a.8.8,0,0,1,0,.66.82.82,0,0,1-.42.49l-12.45,6.15a.81.81,0,0,1-.65,0,.79.79,0,0,1-.49-.42l-9.07-18.35a.89.89,0,0,1,.39-1.15l2.31-1.13a.77.77,0,0,1,.65,0,.82.82,0,0,1,.49.42l7.69,15.57Z" style="fill:#f0f0f0"></path><path d="M39.75,63.78a1,1,0,0,1-.61-.56c-.08-.23-.14-.4-.17-.51l-1.59-7.19-6.29,3.8-.48.24a1,1,0,0,1-.83-.07l-2.09-.89a.7.7,0,0,1-.38-.41.66.66,0,0,1,0-.55.72.72,0,0,1,.19-.25l9.11-5.48L34.42,42a.75.75,0,0,1,0-.31.66.66,0,0,1,.4-.38.68.68,0,0,1,.56,0l2.08.9a1,1,0,0,1,.62.56c.07.23.13.4.16.51l1.5,6.86,6-3.64c.1-.06.27-.13.49-.23a.93.93,0,0,1,.82.06l2.09.89a.75.75,0,0,1,.39.41.7.7,0,0,1,0,.55.54.54,0,0,1-.19.25l-8.79,5.31L42.84,64a.75.75,0,0,1,0,.31.71.71,0,0,1-.4.38.68.68,0,0,1-.56,0Z" style="fill:#f0f0f0"></path><path d="M231.2,65.11a.64.64,0,0,1-.39-.35.63.63,0,0,1,0-.52l5.63-15.38a.7.7,0,0,1,.36-.38.67.67,0,0,1,.52,0l7,2.58a6.51,6.51,0,0,1,2.38,1.39,5.22,5.22,0,0,1,1.22,1.77,4.68,4.68,0,0,1,.33,1.85,5.1,5.1,0,0,1-.29,1.64,4.05,4.05,0,0,1-.66,1.2,3.68,3.68,0,0,1-.81.78,4.44,4.44,0,0,1-.79.46,2.67,2.67,0,0,1-.57.19,5.55,5.55,0,0,1,.84,1.92,4.31,4.31,0,0,1-.23,2.54,5.32,5.32,0,0,1-1,1.68,5.45,5.45,0,0,1-1.57,1.25,5,5,0,0,1-2,.56,5.55,5.55,0,0,1-2.38-.37Zm13.5-8.49a1.77,1.77,0,0,0-.07-1.58A3,3,0,0,0,243,53.91l-4.21-1.54L237.44,56l4.21,1.54a3.07,3.07,0,0,0,2,.2A1.76,1.76,0,0,0,244.7,56.62Zm-9.84,6.46,4.4,1.61a3,3,0,0,0,2.12.15,2.21,2.21,0,0,0,1.06-3,2.91,2.91,0,0,0-1.69-1.26L236.35,59Z" style="fill:#f0f0f0"></path><path d="M151,23.18a.64.64,0,0,0-.52.08l-1.74,1.09a.69.69,0,0,0-.31.43.68.68,0,0,0,.09.52L154,34.19,142.39,29a3.92,3.92,0,0,0-.47-.13.92.92,0,0,0-.69.15l-1.51.95a.67.67,0,0,0-.3.43.73.73,0,0,0,.08.52l8.71,13.94a.69.69,0,0,0,.43.31.68.68,0,0,0,.52-.09L150.91,44a.64.64,0,0,0,.3-.43.67.67,0,0,0-.08-.52l-5.56-8.89,11.66,5.2a3.92,3.92,0,0,0,.47.13.89.89,0,0,0,.68-.15l1.51-1a.64.64,0,0,0,.3-.43.61.61,0,0,0-.08-.51L151.4,23.48A.64.64,0,0,0,151,23.18Z" style="fill:#f0f0f0"></path><path d="M198.19,237.71a.68.68,0,0,0-.54,0l-1.69.64a1,1,0,0,0-.62.55c-.09.24-.15.42-.18.52l-1.58,9.95L185.77,243l-.48-.27a1,1,0,0,0-.84,0l-1.68.64a.69.69,0,0,0-.39.38.68.68,0,0,0,0,.54l6.1,16a.66.66,0,0,0,.38.39.68.68,0,0,0,.54,0l2-.76a.74.74,0,0,0,.4-.38.68.68,0,0,0,0-.54l-3.69-9.66,5.34,4.33a2.12,2.12,0,0,0,.5.27.82.82,0,0,0,.65,0l1.28-.49a.87.87,0,0,0,.49-.43,2.07,2.07,0,0,0,.19-.54l1.09-6.78,3.69,9.65a.68.68,0,0,0,.38.4.72.72,0,0,0,.54,0l2-.77a.66.66,0,0,0,.39-.38.64.64,0,0,0,0-.54l-6.09-16A.69.69,0,0,0,198.19,237.71Z" style="fill:#e6e6e6"></path><path d="M139.57,256a1,1,0,0,1,.66.38,2.18,2.18,0,0,1,.27.83l3.76,20a.51.51,0,0,1,0,.21.77.77,0,0,1-.34.52.81.81,0,0,1-.6.13l-2.13-.4a1.07,1.07,0,0,1-.77-.4,1.51,1.51,0,0,1-.24-.55l-.66-3.5-9.31-1.73-1.87,3a1.54,1.54,0,0,1-.42.43,1.11,1.11,0,0,1-.87.1l-2.12-.4a.77.77,0,0,1-.51-.34.75.75,0,0,1-.13-.6.52.52,0,0,1,.06-.2L135,256.15a2.22,2.22,0,0,1,.55-.68,1,1,0,0,1,.76-.11Zm-.79,13.23-1.68-9-4.8,7.8Z" style="fill:#e6e6e6"></path><path d="M478.84,283.06a.73.73,0,0,0-.46-.31L469.23,281l11.51-9.74a1.17,1.17,0,0,0,.5-.79l.36-1.85a.67.67,0,0,0-.11-.53.68.68,0,0,0-.45-.31l-12.51-2.43a.67.67,0,0,0-.53.11.68.68,0,0,0-.31.45l-.36,1.85a.67.67,0,0,0,.12.53.64.64,0,0,0,.45.3l8.66,1.69-11.47,9.69-.32.29a1.08,1.08,0,0,0-.25.55l-.36,1.84a.7.7,0,0,0,.11.54.67.67,0,0,0,.46.3l13,2.54a.67.67,0,0,0,.53-.11.68.68,0,0,0,.31-.45l.36-1.85A.71.71,0,0,0,478.84,283.06Z" style="fill:#f0f0f0"></path><path d="M26.58,246.22a.88.88,0,0,1-.7-.18.92.92,0,0,1-.38-.63l-3.23-22.56a1,1,0,0,1,.19-.71.94.94,0,0,1,.62-.37l2.83-.4a.92.92,0,0,1,.71.18.94.94,0,0,1,.37.62l3.23,22.57a.94.94,0,0,1-.19.7.9.9,0,0,1-.62.38Z" style="fill:#f0f0f0"></path><path d="M37.65,138.86a.65.65,0,0,0-.49-.26l-11.73-1.08a.71.71,0,0,0-.53.17.72.72,0,0,0-.26.49l-.17,1.91a.69.69,0,0,0,.16.53.71.71,0,0,0,.5.26l8.82.81-.79,8.58A3.75,3.75,0,0,1,31.91,153a3.91,3.91,0,0,1-2.94.71,5,5,0,0,1-1.6-.38,3.35,3.35,0,0,1-1.07-.72,2.93,2.93,0,0,1-.64-1,3.45,3.45,0,0,1-.28-1.08.58.58,0,0,0-.25-.4.93.93,0,0,0-.43-.18l-2.18-.2a.75.75,0,0,0-.54.16.61.61,0,0,0-.26.5,7.16,7.16,0,0,0,.33,2.37,5.2,5.2,0,0,0,1.19,2,6.47,6.47,0,0,0,2.16,1.49,10.14,10.14,0,0,0,3.26.77,8,8,0,0,0,5.7-1.25,6.78,6.78,0,0,0,2.42-5l1-11.38A.7.7,0,0,0,37.65,138.86Z" style="fill:#f0f0f0"></path></g></g><g id="freepik--dictionaries-2--inject-36"><g id="freepik--Book--inject-36"><path d="M463.6,91.92V95.6s-1.42-1.29-1.5-2.22S463.6,91.92,463.6,91.92Z"></path><path d="M460.77,91A3.85,3.85,0,0,0,463.61,96c4,1.27,6.55,0,7.15,1.13s-19.08,12.47-19.08,12.47l3.74-16.28Z" style="fill:#3C4048"></path><path d="M460.77,91A3.85,3.85,0,0,0,463.61,96c4,1.27,6.55,0,7.15,1.13s-19.08,12.47-19.08,12.47l3.74-16.28Z" style="opacity:0.30000000000000004"></path><path d="M453.34,243.34v.23l-2-1.13L367,193.7,374.4,47.36c0-2.34,1.28-3.5,2.87-2.58l2.87,1.66L459.07,92l-.08.69Z" style="fill:#3C4048"></path><path d="M453.34,243.34v.23l-2-1.13L367,193.7,374.4,47.36c0-2.34,1.28-3.5,2.87-2.58l2.87,1.66L459.07,92l-.08.69Z" style="opacity:0.2"></path><path d="M441.88,114.07l-4.15-4.66,21.19-12.23c3.2,2.41,5.66,3.7,8.52,2.49Z" style="fill:#455a64"></path><path d="M457.85,94.67,379.68,49.54a5.44,5.44,0,0,0-4.91,0L353.88,61.6,433.15,107s3.43-.89,5.76,1,2.2-.51,2.2-.51l17.81-10.28C457.47,95.23,457.85,94.67,457.85,94.67Z" style="fill:#f5f5f5"></path><path d="M440.35,113.1c-.81-.46-1.15-1-.77-1.22l.66-.38c.74-.43.06-1.53-1.54-2.45s-3.49-1.34-4.22-.91l-.67.38c-.38.22-1.77-.23-3.12-1l.48,146.59,2,1.13a1.74,1.74,0,0,0,1.15-.11l.67-.38c.73-.42,2.62,0,4.21.89s2.28,2,1.54,2.45l-.66.38c-.38.22,0,.76.77,1.23Z" style="fill:#3C4048"></path><path d="M440.35,113.1c-.81-.46-1.15-1-.77-1.22l.66-.38c.74-.43.06-1.53-1.54-2.45s-3.49-1.34-4.22-.91l-.67.38c-.38.22-1.77-.23-3.12-1l.48,146.59,2,1.13a1.74,1.74,0,0,0,1.15-.11l.67-.38c.73-.42,2.62,0,4.21.89s2.28,2,1.54,2.45l-.66.38c-.38.22,0,.76.77,1.23Z" style="opacity:0.4"></path><path d="M433.15,255v.23l-2-1.13-84.42-48.74,0-142c0-2.35,1.28-3.51,2.87-2.59l2.87,1.67L433.15,107Z" style="fill:#3C4048"></path><path d="M433.15,255v.23l-2-1.13-84.42-48.74,0-142c0-2.35,1.28-3.51,2.87-2.59l2.87,1.67L433.15,107Z" style="opacity:0.2"></path><path d="M439.43,258.86V112.11l5.24,2.11V260.5a5,5,0,0,1-2.9-.29Z" style="fill:#3C4048"></path><path d="M439.43,258.86V112.11l5.24,2.11V260.5a5,5,0,0,1-2.9-.29Z" style="opacity:0.2"></path><path d="M472.87,243.63a1.42,1.42,0,0,1,0,.29.58.58,0,0,1,0,.18,1.36,1.36,0,0,1-.17.39,1,1,0,0,1-.1.21,3.66,3.66,0,0,1-.45.63,6.84,6.84,0,0,1-.58.64l-.74.64a4.1,4.1,0,0,1-.47.35l-.39.27c-.29.2-.6.4-.93.59l-18.19,10.5a17.53,17.53,0,0,1-6.13,2.18V114.22l28.22-16.91,0,146.28Z" style="fill:#3C4048"></path><path d="M444.66,134.53v17.63c11.29-3.82,21-9,28.23-16.29V118.24C465.62,125.5,456,130.7,444.66,134.53Z" style="fill:#3C4048"></path><path d="M444.66,134.53v17.63c11.29-3.82,21-9,28.23-16.29V118.24C465.62,125.5,456,130.7,444.66,134.53Z" style="fill:#fff;opacity:0.4"></path><path d="M444.66,158.7v6.57c11.29-3.83,21-9,28.23-16.29V142.4C465.62,149.67,456,154.87,444.66,158.7Z" style="fill:#3C4048"></path><path d="M444.66,158.7v6.57c11.29-3.83,21-9,28.23-16.29V142.4C465.62,149.67,456,154.87,444.66,158.7Z" style="fill:#fff;opacity:0.4"></path><path d="M450.8,112l-1.42-2.46a12.83,12.83,0,0,1-6.05,1.91,3.77,3.77,0,0,0-.5-2.4,7.42,7.42,0,0,0-2.72-2.5,10.87,10.87,0,0,0-4.13-1.4l-.31,0a4.55,4.55,0,0,0-2.52.48L358.28,62.42,355.73,61l-3.24-1.88a1.74,1.74,0,0,0-1.76-.13l-2.88,1.66a1.77,1.77,0,0,1,1.8.11l.05,0,8.58,5,72.41,41.8c1.35.77,2.75,1.24,3.13,1l.66-.38a2.3,2.3,0,0,1,1.5-.09,8,8,0,0,1,2.71,1c1.6.93,2.28,2,1.55,2.45l-.66.38c-.39.22,0,.76.77,1.23l1.44.82C443.37,114.84,447.41,114,450.8,112Z" style="fill:#3C4048"></path><path d="M450.8,112l-1.42-2.46a12.83,12.83,0,0,1-6.05,1.91,3.77,3.77,0,0,0-.5-2.4,7.42,7.42,0,0,0-2.72-2.5,10.87,10.87,0,0,0-4.13-1.4l-.31,0a4.55,4.55,0,0,0-2.52.48L358.28,62.42,355.73,61l-3.24-1.88a1.74,1.74,0,0,0-1.76-.13l-2.88,1.66a1.77,1.77,0,0,1,1.8.11l.05,0,8.58,5,72.41,41.8c1.35.77,2.75,1.24,3.13,1l.66-.38a2.3,2.3,0,0,1,1.5-.09,8,8,0,0,1,2.71,1c1.6.93,2.28,2,1.55,2.45l-.66.38c-.39.22,0,.76.77,1.23l1.44.82C443.37,114.84,447.41,114,450.8,112Z" style="opacity:0.30000000000000004"></path><path d="M449.38,109.58l18.19-10.5.74-.46.58-.42a.13.13,0,0,0,.06,0c-2.08.9-4.9,0-6.76-1a7,7,0,0,1-2.66-2.45,3.77,3.77,0,0,1-.46-2.67l-.25-.15-.51-.28L385.9,49.76l-4.15-2.4c-.39-.22-.79-.46-1.2-.68l-3.5-2a1.68,1.68,0,0,0-1.57,0l.78-.45,2.09-1.2a1.58,1.58,0,0,1,1.47,0h0c.41.24.84.5,1.29.74l.81.47,1.4.8.86.5.61.35,1.07.61,57.5,33.22,18.37,10.6c1.31.74,2.08,1.53,1.77,1.79a.88.88,0,0,1-.11.08l-.65.37c-.79.46-.15,1.58,1.44,2.49s2.85.94,3.64.52l.79-.45a1.27,1.27,0,0,1,1.14-.17l.43.24.9.53,1.13.64a1.15,1.15,0,0,1,.6,1.31.3.3,0,0,1,0,.18,1.34,1.34,0,0,1-.16.39h0a.84.84,0,0,1-.08.2,3.66,3.66,0,0,1-.45.63,6.84,6.84,0,0,1-.58.64c-.24.21-.48.42-.75.64a4,4,0,0,1-.46.35l-.39.27c-.29.2-.6.4-.94.59L450.8,112Z" style="fill:#3C4048"></path><path d="M449.38,109.58l18.19-10.5.74-.46.58-.42a.13.13,0,0,0,.06,0c-2.08.9-4.9,0-6.76-1a7,7,0,0,1-2.66-2.45,3.77,3.77,0,0,1-.46-2.67l-.25-.15-.51-.28L385.9,49.76l-4.15-2.4c-.39-.22-.79-.46-1.2-.68l-3.5-2a1.68,1.68,0,0,0-1.57,0l.78-.45,2.09-1.2a1.58,1.58,0,0,1,1.47,0h0c.41.24.84.5,1.29.74l.81.47,1.4.8.86.5.61.35,1.07.61,57.5,33.22,18.37,10.6c1.31.74,2.08,1.53,1.77,1.79a.88.88,0,0,1-.11.08l-.65.37c-.79.46-.15,1.58,1.44,2.49s2.85.94,3.64.52l.79-.45a1.27,1.27,0,0,1,1.14-.17l.43.24.9.53,1.13.64a1.15,1.15,0,0,1,.6,1.31.3.3,0,0,1,0,.18,1.34,1.34,0,0,1-.16.39h0a.84.84,0,0,1-.08.2,3.66,3.66,0,0,1-.45.63,6.84,6.84,0,0,1-.58.64c-.24.21-.48.42-.75.64a4,4,0,0,1-.46.35l-.39.27c-.29.2-.6.4-.94.59L450.8,112Z" style="opacity:0.30000000000000004"></path></g><g id="freepik--book--inject-36"><path d="M421.75,117.14v3.68s-1.42-1.29-1.5-2.22S421.75,117.14,421.75,117.14Z"></path><path d="M418.91,116.24a3.87,3.87,0,0,0,2.85,4.93c4,1.26,6.54,0,7.15,1.13s-19.08,12.47-19.08,12.47l3.74-16.28Z" style="fill:#3C4048"></path><path d="M418.91,116.24a3.87,3.87,0,0,0,2.85,4.93c4,1.26,6.54,0,7.15,1.13s-19.08,12.47-19.08,12.47l3.74-16.28Z" style="opacity:0.30000000000000004"></path><path d="M411.49,268.56v.23l-2-1.13L325.1,218.92l7.44-146.34c0-2.35,1.29-3.51,2.87-2.59l2.88,1.67,78.92,45.55-.07.69Z" style="fill:#3C4048"></path><path d="M411.49,268.56v.23l-2-1.13L325.1,218.92l7.44-146.34c0-2.35,1.29-3.51,2.87-2.59l2.88,1.67,78.92,45.55-.07.69Z" style="opacity:0.2"></path><path d="M400,139.29l-4.14-4.66,21.19-12.24c3.2,2.42,5.65,3.7,8.52,2.5Z" style="fill:#455a64"></path><path d="M416,119.89,337.83,74.76a5.44,5.44,0,0,0-4.91,0L312,86.82l79.27,45.37s3.42-.89,5.75,1,2.21-.5,2.21-.5l17.81-10.29C415.62,120.44,416,119.89,416,119.89Z" style="fill:#f5f5f5"></path><path d="M398.5,138.32c-.81-.47-1.16-1-.77-1.22l.66-.39c.73-.42.05-1.52-1.55-2.45s-3.48-1.33-4.22-.9l-.66.38c-.38.22-1.77-.23-3.12-1l.48,146.59,2,1.13a1.88,1.88,0,0,0,1.15-.11l.66-.38c.74-.43,2.62,0,4.22.89s2.28,2,1.54,2.45l-.66.38c-.38.22,0,.76.77,1.22Z" style="fill:#3C4048"></path><path d="M398.5,138.32c-.81-.47-1.16-1-.77-1.22l.66-.39c.73-.42.05-1.52-1.55-2.45s-3.48-1.33-4.22-.9l-.66.38c-.38.22-1.77-.23-3.12-1l.48,146.59,2,1.13a1.88,1.88,0,0,0,1.15-.11l.66-.38c.74-.43,2.62,0,4.22.89s2.28,2,1.54,2.45l-.66.38c-.38.22,0,.76.77,1.22Z" style="fill:#fff;opacity:0.25"></path><path d="M391.3,280.22v.23l-2-1.14-84.42-48.73v-142c0-2.35,1.29-3.51,2.88-2.59l2.87,1.66,80.63,44.59Z" style="fill:#3C4048"></path><path d="M391.3,280.22v.23l-2-1.14-84.42-48.73v-142c0-2.35,1.29-3.51,2.88-2.59l2.87,1.66,80.63,44.59Z" style="fill:#fff;opacity:0.4"></path><path d="M397.57,284.07V137.33l5.24,2.11V285.71a4.92,4.92,0,0,1-2.89-.28Z" style="fill:#3C4048"></path><path d="M397.57,284.07V137.33l5.24,2.11V285.71a4.92,4.92,0,0,1-2.89-.28Z" style="fill:#fff;opacity:0.4"></path><path d="M431,268.85a1.33,1.33,0,0,1,0,.28.31.31,0,0,1,0,.19,1.34,1.34,0,0,1-.16.39.75.75,0,0,1-.1.2,3.38,3.38,0,0,1-.45.64,6.76,6.76,0,0,1-.58.63c-.24.22-.48.43-.75.64a3.43,3.43,0,0,1-.47.36l-.38.27c-.29.2-.6.4-.94.59l-18.18,10.5a17.53,17.53,0,0,1-6.13,2.18V139.44L431,122.53V268.85Z" style="fill:#3C4048"></path><g style="opacity:0.7000000000000001"><path d="M431,268.85a1.33,1.33,0,0,1,0,.28.31.31,0,0,1,0,.19,1.34,1.34,0,0,1-.16.39.75.75,0,0,1-.1.2,3.38,3.38,0,0,1-.45.64,6.76,6.76,0,0,1-.58.63c-.24.22-.48.43-.75.64a3.43,3.43,0,0,1-.47.36l-.38.27c-.29.2-.6.4-.94.59l-18.18,10.5a17.53,17.53,0,0,1-6.13,2.18V139.44L431,122.53V268.85Z" style="fill:#fff"></path></g><path d="M402.81,151.56V169.2c11.28-3.83,21-9,28.22-16.3V135.27C423.77,142.53,414.09,147.73,402.81,151.56Z" style="fill:#fafafa"></path><path d="M402.81,249.79v17.63c11.28-3.82,21-9,28.22-16.29V233.5C423.77,240.76,414.09,246,402.81,249.79Z" style="fill:#fafafa"></path><path d="M409,137.26l-1.42-2.46a12.89,12.89,0,0,1-6,1.91,3.83,3.83,0,0,0-.5-2.4,7.42,7.42,0,0,0-2.72-2.5,10.75,10.75,0,0,0-4.14-1.4,1.56,1.56,0,0,0-.3,0,4.66,4.66,0,0,0-2.53.47L316.42,87.64l-2.54-1.46-3.25-1.88a1.74,1.74,0,0,0-1.76-.13L306,85.83a1.75,1.75,0,0,1,1.8.11l0,0,8.58,5,72.41,41.8c1.35.77,2.75,1.24,3.13,1l.67-.38a2.35,2.35,0,0,1,1.5-.1,8.23,8.23,0,0,1,2.71,1c1.6.93,2.28,2,1.54,2.45l-.66.38c-.38.22,0,.76.77,1.22l1.44.83C401.51,140.06,405.56,139.21,409,137.26Z" style="fill:#3C4048"></path><path d="M409,137.26l-1.42-2.46a12.89,12.89,0,0,1-6,1.91,3.83,3.83,0,0,0-.5-2.4,7.42,7.42,0,0,0-2.72-2.5,10.75,10.75,0,0,0-4.14-1.4,1.56,1.56,0,0,0-.3,0,4.66,4.66,0,0,0-2.53.47L316.42,87.64l-2.54-1.46-3.25-1.88a1.74,1.74,0,0,0-1.76-.13L306,85.83a1.75,1.75,0,0,1,1.8.11l0,0,8.58,5,72.41,41.8c1.35.77,2.75,1.24,3.13,1l.67-.38a2.35,2.35,0,0,1,1.5-.1,8.23,8.23,0,0,1,2.71,1c1.6.93,2.28,2,1.54,2.45l-.66.38c-.38.22,0,.76.77,1.22l1.44.83C401.51,140.06,405.56,139.21,409,137.26Z" style="fill:#fff;opacity:0.6000000000000001"></path><path d="M407.53,134.8l18.18-10.5.75-.46.58-.42a.08.08,0,0,0,0,0c-2.08.91-4.9,0-6.75-1a7.15,7.15,0,0,1-2.67-2.46,3.86,3.86,0,0,1-.46-2.66l-.25-.15-.5-.28L344.05,75l-4.15-2.4c-.39-.22-.79-.46-1.2-.68-1.22-.71-2.45-1.42-3.51-2a1.68,1.68,0,0,0-1.57,0l.79-.45,2.09-1.21a1.59,1.59,0,0,1,1.46,0s0,0,0,0c.42.24.85.5,1.3.74l.81.47,1.39.8c.32.18.61.34.86.5l.62.35,1.07.61,57.5,33.22,18.36,10.59c1.32.75,2.08,1.54,1.77,1.8l-.11.08-.64.37c-.8.46-.15,1.58,1.44,2.49s2.85.94,3.64.52l.78-.46a1.36,1.36,0,0,1,1.15-.17l.42.25.91.53,1.12.64a1.15,1.15,0,0,1,.61,1.3.41.41,0,0,1,0,.19,1.36,1.36,0,0,1-.17.39h0a.64.64,0,0,1-.08.19,3.38,3.38,0,0,1-.45.64c-.18.21-.38.43-.59.63s-.47.42-.74.64a3.43,3.43,0,0,1-.47.36l-.38.27c-.29.2-.61.4-.94.59L409,137.26Z" style="fill:#3C4048"></path><path d="M407.53,134.8l18.18-10.5.75-.46.58-.42a.08.08,0,0,0,0,0c-2.08.91-4.9,0-6.75-1a7.15,7.15,0,0,1-2.67-2.46,3.86,3.86,0,0,1-.46-2.66l-.25-.15-.5-.28L344.05,75l-4.15-2.4c-.39-.22-.79-.46-1.2-.68-1.22-.71-2.45-1.42-3.51-2a1.68,1.68,0,0,0-1.57,0l.79-.45,2.09-1.21a1.59,1.59,0,0,1,1.46,0s0,0,0,0c.42.24.85.5,1.3.74l.81.47,1.39.8c.32.18.61.34.86.5l.62.35,1.07.61,57.5,33.22,18.36,10.59c1.32.75,2.08,1.54,1.77,1.8l-.11.08-.64.37c-.8.46-.15,1.58,1.44,2.49s2.85.94,3.64.52l.78-.46a1.36,1.36,0,0,1,1.15-.17l.42.25.91.53,1.12.64a1.15,1.15,0,0,1,.61,1.3.41.41,0,0,1,0,.19,1.36,1.36,0,0,1-.17.39h0a.64.64,0,0,1-.08.19,3.38,3.38,0,0,1-.45.64c-.18.21-.38.43-.59.63s-.47.42-.74.64a3.43,3.43,0,0,1-.47.36l-.38.27c-.29.2-.61.4-.94.59L409,137.26Z" style="fill:#fff;opacity:0.6000000000000001"></path></g></g><g id="freepik--dictionary-1--inject-36"><g id="freepik--Dictionary--inject-36"><path d="M457.72,329.66a2.11,2.11,0,0,1-1.24,1.77L339,399.22c-1.66,1-3,2.64-3,3.76s-1.34,2.8-3,3.76l-21,12.17c-1.65,1-3,.82-3-.3s-1.34-1.25-3-.29L202.56,478a6.59,6.59,0,0,1-6,0L48.62,392.61a2.1,2.1,0,0,1-1.24-1.72c0-.55,0-4.09,0-5a2.13,2.13,0,0,0,1.23,1.61l4,2.31,144,83.11a6.65,6.65,0,0,0,6,0L309,411.49c1.65-1,3-.83,3,.29s1.34,1.26,3,.3L330,403.37c1.66-.95,3-2.63,3-3.75s1.34-2.81,3-3.76l116.42-67.22,5.25-4.05h0v.13C457.7,325.45,457.7,329.1,457.72,329.66Z" style="fill:#3C4048"></path><path d="M199,473.61v5.06a5.86,5.86,0,0,1-2.43-.65L48.62,392.61a2.1,2.1,0,0,1-1.24-1.72c0-.55,0-4.09,0-5a2.13,2.13,0,0,0,1.23,1.61l148,85.42A5.83,5.83,0,0,0,199,473.61Z" style="opacity:0.15"></path><path d="M196.56,472.91,48.61,387.5c-1.66-1-1.66-2.5,0-3.46l254.08-146.5a6.62,6.62,0,0,1,6,0l147.78,85.31c1.65.95,1.65,2.5,0,3.46L336,395.85c-1.65,1-3,2.64-3,3.76s-1.35,2.8-3,3.76l-15.08,8.71c-1.66.95-3,.82-3-.3s-1.34-1.25-3-.3l-106.4,61.43A6.59,6.59,0,0,1,196.56,472.91Z" style="fill:#3C4048"></path><path d="M196.56,472.91,48.61,387.5c-1.66-1-1.66-2.5,0-3.46l254.08-146.5a6.62,6.62,0,0,1,6,0l147.78,85.31c1.65.95,1.65,2.5,0,3.46L336,395.85c-1.65,1-3,2.64-3,3.76s-1.35,2.8-3,3.76l-15.08,8.71c-1.66.95-3,.82-3-.3s-1.34-1.25-3-.3l-106.4,61.43A6.59,6.59,0,0,1,196.56,472.91Z" style="fill:#fff;opacity:0.4"></path><polygon points="312.41 408 309.63 406.39 331.81 393.56 332.58 394 312.41 408" style="fill:#37474f"></polygon><path d="M330.74,394.21l-16.52,9.54a4.45,4.45,0,0,0-2.24,3.31c0,1.11,1,1.44,2.25.72l16.53-9.54a4.45,4.45,0,0,0,2.23-3.31C333,393.81,332,393.49,330.74,394.21Z" style="fill:#455a64"></path><g id="freepik--book--inject-36"><path d="M325.44,397.24l0-11.65c0-5.27,9.38-20.3,21.12-27.07l95-54.85,8.39,21.64Z" style="fill:#f5f5f5"></path><path d="M441.54,303.67l-95,54.85c-11.74,6.76-21.17,21.81-21.12,27.07l0,11.65L179.23,312.85V301.21c0-5.27,9.39-20.31,21.12-27.08l95-54.82.05,0Z" style="fill:#fafafa"></path><path d="M441.54,303.67l-95,54.85c-11.74,6.76-21.17,21.81-21.12,27.07l0,11.65L179.23,312.85V301.21c0-5.27,9.39-20.31,21.12-27.08l95-54.85Z" style="fill:#fafafa"></path><path d="M325.94,398.11l-147.21-85V301.21c0-5.69,9.92-20.9,21.37-27.51l95.27-55,.25.15,146.92,84.82L346.77,359c-11.92,6.86-20.91,21.78-20.87,26.63ZM179.73,312.56l145.21,83.81,0-10.78c0-5.69,9.92-20.91,21.37-27.5l94.27-54.42L295.37,219.86l-94.77,54.7c-11.92,6.88-20.91,21.8-20.87,26.64Z" style="fill:#e0e0e0"></path><path d="M325.4,385.9l-9.1-5.28-12-6.94c6.72-.77,11.48.25,14.77,2.14A12.38,12.38,0,0,1,325.4,385.9Z" style="fill:#f0f0f0"></path><path d="M325.4,385.9l-9.1-5.28-12-6.94c6.72-.77,11.48.25,14.77,2.14A12.38,12.38,0,0,1,325.4,385.9Z" style="fill:#e0e0e0"></path><path d="M325.4,385.9c0-5.27-9.66-9.66-21.42-2.92L209,437.4l-8.39,32,124.83-72.12S325.45,391.17,325.4,385.9Z" style="fill:#f5f5f5"></path><path d="M394.81,345,371,358.39q-5.94,3.39-11.85,6.85c-3.92,2.33-7.84,4.69-11.6,7.29a87.32,87.32,0,0,0-10.75,8.53,34.74,34.74,0,0,0-8.05,11,35.7,35.7,0,0,1,8.38-10.65,87.66,87.66,0,0,1,10.84-8.24c7.61-5,15.59-9.42,23.53-13.92l23.73-13.61L407,338.76l11.78-7-12,6.55Zm-61.28,33.41a63.61,63.61,0,0,1,10.19-10.23,121.79,121.79,0,0,1,11.8-8.39c4.09-2.58,8.34-4.9,12.6-7.23l25.4-14.17,12.66-7.16L418.8,324,406,330.77l-12.8,6.92-25.52,14c-8.49,4.65-16.95,9.6-24.4,15.9a63.65,63.65,0,0,0-10.09,10.53,40.58,40.58,0,0,0-6.55,13,43.16,43.16,0,0,1,2.92-6.64A44.11,44.11,0,0,1,333.53,378.38ZM312.65,397a37.16,37.16,0,0,0-6,1.94,124.61,124.61,0,0,0-11.3,5.57c-3.69,2-7.29,4.13-10.92,6.21L273.57,417c-7.2,4.28-14.43,8.51-21.61,12.83s-14.35,8.64-21.47,13.07c7.34-4.05,14.61-8.2,21.88-12.37s14.49-8.4,21.73-12.6,14.42-8.54,21.66-12.72c3.63-2.08,7.29-4.1,11.1-5.81a36.05,36.05,0,0,1,5.86-2.14,12.36,12.36,0,0,1,3.08-.42,4.43,4.43,0,0,1,2.91.91,4.51,4.51,0,0,0-2.91-1.08A12.85,12.85,0,0,0,312.65,397Zm5.3-7.93a14.74,14.74,0,0,0-6.67.18,59.87,59.87,0,0,0-12.43,4.8c-4,1.94-7.86,4.14-11.69,6.37l-11.45,6.75c-7.58,4.58-15.17,9.15-22.71,13.8l-11.29,7c-3.74,2.37-7.5,4.71-11.22,7.12L242,428.4l11.44-6.74,22.83-13.59c7.6-4.55,15.12-9.24,23-13.31a61.2,61.2,0,0,1,12.18-5,14.57,14.57,0,0,1,6.49-.41,7.18,7.18,0,0,1,4.92,4,8,8,0,0,0-1.9-2.71A7.11,7.11,0,0,0,318,389.05Z" style="fill:#e6e6e6"></path><polygon points="200.61 469.36 209 437.4 62.84 353.01 54.45 384.97 200.61 469.36" style="fill:#ebebeb"></polygon><path d="M304,383l-4.25,2.43L209,437.4,79.89,362.85l-17-9.84,95-54.42c8.61-4.94,13.43-4.54,16.82-2.63h0l148.16,85.55C317.47,378.49,311.23,379.12,304,383Z" style="fill:#fafafa"></path><polygon points="202.36 422.56 283.25 375.89 287.5 373.46 290.62 375.26 286.36 377.69 205.47 424.36 202.36 422.56" style="fill:#e0e0e0"></polygon><polygon points="194.89 418.25 275.78 371.58 280.03 369.15 283.15 370.94 278.89 373.38 198 420.05 194.89 418.25" style="fill:#e0e0e0"></polygon><polygon points="187.42 413.94 268.31 367.27 272.56 364.83 275.68 366.63 271.42 369.06 190.53 415.74 187.42 413.94" style="fill:#e0e0e0"></polygon><polygon points="179.95 409.63 260.84 362.96 265.1 360.52 268.21 362.32 263.95 364.75 183.06 411.43 179.95 409.63" style="fill:#e0e0e0"></polygon><polygon points="172.48 405.31 253.37 358.64 257.63 356.21 260.74 358.01 256.48 360.44 175.59 407.11 172.48 405.31" style="fill:#e0e0e0"></polygon><polygon points="165.01 401 245.9 354.33 250.16 351.9 253.27 353.69 249.01 356.13 168.12 402.8 165.01 401" style="fill:#e0e0e0"></polygon><polygon points="157.54 396.69 238.43 350.02 242.69 347.58 245.8 349.38 241.54 351.81 160.65 398.49 157.54 396.69" style="fill:#e0e0e0"></polygon><polygon points="150.07 392.38 230.96 345.71 235.22 343.27 238.33 345.07 234.07 347.5 153.19 394.18 150.07 392.38" style="fill:#e0e0e0"></polygon><polygon points="142.6 388.06 223.49 341.39 227.75 338.96 230.86 340.76 226.6 343.19 145.72 389.86 142.6 388.06" style="fill:#e0e0e0"></polygon><polygon points="135.13 383.75 216.02 337.08 220.28 334.65 223.39 336.44 219.13 338.88 138.25 385.55 135.13 383.75" style="fill:#e0e0e0"></polygon><polygon points="127.66 379.44 208.55 332.77 212.81 330.33 215.92 332.13 211.66 334.57 130.78 381.24 127.66 379.44" style="fill:#e0e0e0"></polygon><polygon points="120.19 375.13 201.08 328.45 205.34 326.02 208.45 327.82 204.19 330.25 123.31 376.93 120.19 375.13" style="fill:#e0e0e0"></polygon><polygon points="112.72 370.81 193.61 324.14 197.87 321.71 200.98 323.51 196.72 325.94 115.84 372.61 112.72 370.81" style="fill:#e0e0e0"></polygon><polygon points="105.25 366.5 186.14 319.83 190.4 317.4 193.51 319.19 189.26 321.63 108.37 368.3 105.25 366.5" style="fill:#e0e0e0"></polygon><polygon points="97.79 362.19 178.67 315.52 182.93 313.08 186.04 314.88 181.79 317.31 100.9 363.99 97.79 362.19" style="fill:#e0e0e0"></polygon><polygon points="90.32 357.88 171.2 311.2 175.46 308.77 178.57 310.57 174.32 313 93.43 359.68 90.32 357.88" style="fill:#e0e0e0"></polygon><polygon points="82.85 353.56 163.73 306.89 167.99 304.46 171.1 306.26 166.85 308.69 85.96 355.36 82.85 353.56" style="fill:#e0e0e0"></polygon><path d="M304.9,377.88c-1.76.17-5.48,1.37-7.53,1.83-8.63,1.94-23.87,8.9-38.46,16.21-19.5,9.76-37.86,20.18-37.86,20.18L87.32,339l70.51-40.39a30.73,30.73,0,0,1,8.7-3.61,18.88,18.88,0,0,1,6.1,2.1l1-1.64a10.44,10.44,0,0,1,1.06.52l148.17,85.55C314.49,376.7,310.62,377.34,304.9,377.88Z" style="opacity:0.1"></path><polygon points="207.75 442.16 223.41 434.33 207.29 443.91 194.53 434.76 207.75 442.16" style="fill:#e6e6e6"></polygon><polygon points="204.98 452.72 231.88 437.19 205.3 451.5 175.4 435.28 204.98 452.72" style="fill:#e6e6e6"></polygon><polygon points="58.4 369.91 57.99 371.49 90.96 389.81 58.4 369.91" style="fill:#e6e6e6"></polygon><polygon points="59.72 364.91 80.1 375.32 60.14 363.28 59.72 364.91" style="fill:#e6e6e6"></polygon><path d="M304.31,373.68a54.22,54.22,0,0,0-5.7,1c-8.64,1.94-23.87,8.9-38.46,16.21-19.5,9.76-37.86,20.18-37.86,20.18L76,326.71s55.64-32,77.47-36.26c10.25-2,16.53-.6,20.36,1.58l0,0,145.19,83.82C315.79,373.93,311,372.91,304.31,373.68Z" style="fill:#f5f5f5"></path><path d="M305.32,367.88c-3.27-1.71-7.89-2.59-14.28-1.86a50.79,50.79,0,0,0-5.7,1c-5.75,1.3-14.43,4.81-23.88,9.17-4.75,2.19-9.7,4.59-14.59,7-2.47,1.24-4.93,2.49-7.33,3.73L236.22,385c2.4-1.24,4.86-2.49,7.33-3.73,4.88-2.44,9.83-4.84,14.59-7,9.45-4.36,18.13-7.87,23.87-9.17a51.33,51.33,0,0,1,5.71-1c6.71-.77,11.47.24,14.76,2.14Z" style="fill:#e0e0e0"></path><path d="M295,361.92c-3.29-1.9-8.05-2.91-14.76-2.14a48.75,48.75,0,0,0-5.7,1c-5.75,1.29-14.42,4.81-23.88,9.17-4.75,2.19-9.7,4.59-14.58,7-11.74,5.88-23.06,12-30.22,15.93l3.32,1.91c7.16-3.93,18.48-10,30.22-15.92,4.88-2.44,9.83-4.84,14.58-7,9.46-4.36,18.13-7.87,23.88-9.17a51.18,51.18,0,0,1,5.7-1c6.71-.77,11.48.24,14.76,2.14Z" style="fill:#e0e0e0"></path><path d="M287.51,357.6c-3.29-1.9-8.05-2.91-14.76-2.14a48.75,48.75,0,0,0-5.7,1c-5.75,1.29-14.42,4.81-23.88,9.16-4.75,2.2-9.7,4.6-14.59,7-11.73,5.88-23.05,12-30.21,15.93l3.32,1.91c7.16-3.93,18.48-10,30.22-15.92,4.88-2.44,9.83-4.85,14.58-7,9.46-4.36,18.13-7.87,23.88-9.17a50.79,50.79,0,0,1,5.7-1c6.71-.77,11.47.24,14.76,2.14Z" style="fill:#e0e0e0"></path><path d="M282.87,354.92c-3.26-1.71-7.89-2.59-14.28-1.86a50.79,50.79,0,0,0-5.7,1c-5.75,1.3-14.42,4.81-23.88,9.17-4.13,1.9-8.41,4-12.67,6.09L223,367.37c4.26-2.11,8.54-4.18,12.67-6.09,9.46-4.35,18.13-7.87,23.88-9.17a50.79,50.79,0,0,1,5.7-1c6.71-.77,11.47.24,14.76,2.14Z" style="fill:#e0e0e0"></path><path d="M272.54,349c-3.28-1.9-8-2.91-14.76-2.14a49.11,49.11,0,0,0-5.7,1c-5.75,1.29-14.42,4.81-23.87,9.17-4.76,2.19-9.71,4.59-14.59,7-11.74,5.88-23.06,12-30.21,15.93l3.32,1.91c7.16-3.93,18.47-10,30.21-15.92,4.88-2.44,9.83-4.84,14.59-7,9.45-4.36,18.12-7.87,23.87-9.17a51.18,51.18,0,0,1,5.7-1c6.72-.77,11.48.24,14.77,2.14Z" style="fill:#e0e0e0"></path><path d="M267.91,346.28c-3.27-1.71-7.89-2.59-14.29-1.86a51.57,51.57,0,0,0-5.7,1c-5.75,1.3-14.42,4.81-23.87,9.17-4.76,2.19-9.71,4.6-14.59,7q-2.09,1-4.13,2.09L202,361.77l4.14-2.09c4.88-2.44,9.83-4.84,14.59-7,9.45-4.35,18.12-7.87,23.87-9.17a51.18,51.18,0,0,1,5.7-1c6.72-.77,11.48.24,14.76,2.14Z" style="fill:#e0e0e0"></path><path d="M257.58,340.32c-3.29-1.9-8-2.91-14.76-2.14a48.75,48.75,0,0,0-5.7,1c-5.75,1.29-14.42,4.81-23.88,9.16-4.75,2.2-9.7,4.6-14.59,7-11.73,5.88-23.05,12-30.21,15.93l3.32,1.91c7.16-3.93,18.48-10,30.22-15.92,4.88-2.44,9.83-4.84,14.58-7,9.46-4.36,18.13-7.87,23.88-9.17a50.79,50.79,0,0,1,5.7-1c6.71-.77,11.47.24,14.76,2.13Z" style="fill:#e0e0e0"></path><path d="M252.94,337.64c-3.27-1.71-7.89-2.59-14.28-1.86a50.79,50.79,0,0,0-5.7,1c-5.75,1.3-14.42,4.81-23.88,9.17-4.75,2.19-9.7,4.59-14.58,7-3.87,1.94-7.7,3.9-11.34,5.81l-3.32-1.92c3.64-1.91,7.47-3.87,11.34-5.81,4.88-2.44,9.83-4.84,14.58-7,9.46-4.36,18.13-7.87,23.88-9.17a50.79,50.79,0,0,1,5.7-1c6.71-.77,11.47.24,14.76,2.14Z" style="fill:#e0e0e0"></path><path d="M231.17,331.46a51.57,51.57,0,0,0-5.7,1c-8.64,1.95-23.87,8.9-38.46,16.21-11.74,5.88-23,12-30.21,15.92l-3.32-1.91c7.15-3.94,18.47-10,30.21-15.93,14.59-7.31,29.82-14.26,38.46-16.2a49.11,49.11,0,0,1,5.7-1c6.72-.77,11.48.24,14.76,2.14l3.32,1.92C242.65,331.7,237.89,330.69,231.17,331.46Z" style="fill:#e0e0e0"></path><path d="M238,329c-3.27-1.71-7.89-2.59-14.29-1.86a51.57,51.57,0,0,0-5.7,1c-8.17,1.84-22.22,8.15-36.06,15l-3.33-1.92c13.84-6.86,27.9-13.18,36.07-15a51.18,51.18,0,0,1,5.7-1c6.72-.77,11.48.24,14.76,2.14Z" style="fill:#e0e0e0"></path><path d="M216.21,322.82a50.79,50.79,0,0,0-5.7,1c-8.64,1.95-23.88,8.9-38.46,16.21-11.74,5.88-23.06,12-30.22,15.92L138.51,354c7.16-3.94,18.48-10.05,30.21-15.93,14.59-7.31,29.83-14.26,38.47-16.21a50.79,50.79,0,0,1,5.7-1c6.71-.77,11.47.24,14.76,2.14L231,325C227.68,323.06,222.92,322.05,216.21,322.82Z" style="fill:#e0e0e0"></path><path d="M223.49,320.63c-3.29-1.89-8.05-2.9-14.76-2.14a53.35,53.35,0,0,0-5.7,1c-8.64,1.95-23.87,8.9-38.46,16.21l-1.44.72-3.33-1.92,1.44-.72c14.59-7.31,29.83-14.26,38.47-16.21a50.79,50.79,0,0,1,5.7-1c6.71-.77,11.47.24,14.76,2.14Z" style="fill:#e0e0e0"></path><path d="M201.24,314.18a51.18,51.18,0,0,0-5.7,1c-8.64,2-23.87,8.9-38.46,16.21-11.74,5.88-23.05,12-30.21,15.92l-3.32-1.91c7.15-3.94,18.47-10.05,30.21-15.93,14.59-7.31,29.82-14.26,38.46-16.2a49.11,49.11,0,0,1,5.7-1c6.72-.77,11.48.24,14.76,2.14l3.33,1.92C212.72,314.42,208,313.41,201.24,314.18Z" style="fill:#e0e0e0"></path><path d="M193.76,309.86a50.79,50.79,0,0,0-5.7,1c-8.64,1.95-23.87,8.9-38.46,16.21-11.74,5.88-23.06,12-30.21,15.92l-3.33-1.91c7.16-3.94,18.48-10.05,30.22-15.93,14.58-7.31,29.82-14.26,38.46-16.2a48.75,48.75,0,0,1,5.7-1c6.71-.77,11.47.24,14.76,2.14l3.32,1.92C205.24,310.1,200.47,309.09,193.76,309.86Z" style="fill:#e0e0e0"></path><path d="M200.56,307.4c-3.26-1.71-7.88-2.59-14.28-1.87a53.78,53.78,0,0,0-5.7,1c-8.64,1.94-23.87,8.9-38.46,16.21l-4.75,2.4-3.32-1.92,4.75-2.4c14.59-7.31,29.82-14.26,38.46-16.21a50.79,50.79,0,0,1,5.7-1c6.71-.77,11.48.24,14.76,2.14Z" style="fill:#e0e0e0"></path><path d="M178.8,301.22a51.33,51.33,0,0,0-5.71,1c-8.63,1.95-23.87,8.9-38.46,16.21-11.73,5.88-23,12-30.21,15.92l-3.32-1.91c7.16-3.94,18.47-10.05,30.21-15.93,14.59-7.31,29.82-14.26,38.46-16.21a51.57,51.57,0,0,1,5.7-1c6.72-.77,11.48.24,14.77,2.14l3.32,1.91C190.27,301.46,185.51,300.45,178.8,301.22Z" style="fill:#e0e0e0"></path><path d="M232.28,387.06c-7.44,3.87-14.13,7.5-18.94,10.14l3.32,1.92c4.81-2.64,11.5-6.27,18.94-10.15ZM219,369.37c-11,5.55-21.38,11.17-28.11,14.87l3.32,1.92c6.73-3.7,17.14-9.32,28.12-14.87Zm-21-5.56c-8.7,4.48-16.63,8.78-22.11,11.79l3.32,1.92c5.49-3,13.42-7.31,22.11-11.79Zm-22.12-4.9c-5.83,3.07-11,5.89-15,8l3.32,1.92c3.94-2.16,9.13-5,15-8.05Zm-1.34-15.7c-11.15,5.63-21.75,11.36-28.58,15.11l3.32,1.92c6.83-3.75,17.44-9.48,28.59-15.11Zm-18.76-6.7c-9.72,5-18.74,9.85-24.79,13.17l3.32,1.92c6.05-3.32,15.06-8.19,24.79-13.17Zm-25.73-11.27c-8.45,4.37-16.15,8.54-21.51,11.48l3.33,1.92c5.35-2.94,13-7.11,21.5-11.48Zm-6.76-12.83c-11.55,5.8-22.65,11.8-29.71,15.67L96.94,330c7.06-3.88,18.16-9.87,29.72-15.67Z" style="fill:#e0e0e0"></path><g style="opacity:0.25"><path d="M232.28,387.06c-7.44,3.87-14.13,7.5-18.94,10.14l3.32,1.92c4.81-2.64,11.5-6.27,18.94-10.15ZM219,369.37c-11,5.55-21.38,11.17-28.11,14.87l3.32,1.92c6.73-3.7,17.14-9.32,28.12-14.87Zm-21-5.56c-8.7,4.48-16.63,8.78-22.11,11.79l3.32,1.92c5.49-3,13.42-7.31,22.11-11.79Zm-22.12-4.9c-5.83,3.07-11,5.89-15,8l3.32,1.92c3.94-2.16,9.13-5,15-8.05Zm-1.34-15.7c-11.15,5.63-21.75,11.36-28.58,15.11l3.32,1.92c6.83-3.75,17.44-9.48,28.59-15.11Zm-18.76-6.7c-9.72,5-18.74,9.85-24.79,13.17l3.32,1.92c6.05-3.32,15.06-8.19,24.79-13.17Zm-25.73-11.27c-8.45,4.37-16.15,8.54-21.51,11.48l3.33,1.92c5.35-2.94,13-7.11,21.5-11.48Zm-6.76-12.83c-11.55,5.8-22.65,11.8-29.71,15.67L96.94,330c7.06-3.88,18.16-9.87,29.72-15.67Z"></path></g><path d="M185.6,298.76c-3.27-1.71-7.89-2.59-14.28-1.86a51.33,51.33,0,0,0-5.71,1c-7.93,1.79-21.45,7.81-34.92,14.46l-3.32-1.92c13.47-6.65,27-12.67,34.92-14.46a51.33,51.33,0,0,1,5.71-1c6.71-.77,11.47.24,14.76,2.14Z" style="fill:#e0e0e0"></path><polygon points="418.01 301.57 342.88 344.85 339.84 343.09 414.97 299.82 418.01 301.57" style="fill:#e0e0e0"></polygon><path d="M325.37,346.31a47.56,47.56,0,0,0-11.83,10.13l-3-1.76a47.73,47.73,0,0,1,11.83-10.12l85.16-49.06,3,1.76Z" style="fill:#e0e0e0"></path><path d="M317.9,342a47.73,47.73,0,0,0-11.83,10.12l-3-1.75a47.38,47.38,0,0,1,11.83-10.13L400,291.19l3,1.75Z" style="fill:#e0e0e0"></path><polygon points="395.59 288.63 332.55 324.94 329.51 323.19 392.55 286.87 395.59 288.63" style="fill:#e0e0e0"></polygon><path d="M303,333.37a47.73,47.73,0,0,0-11.83,10.12l-3-1.75a47.56,47.56,0,0,1,11.83-10.13l85.16-49.05,3,1.75Z" style="fill:#e0e0e0"></path><path d="M295.48,329.05a47.2,47.2,0,0,0-11.83,10.13l-3-1.76a47.77,47.77,0,0,1,11.84-10.12l85.15-49.06,3,1.76Z" style="fill:#e0e0e0"></path><polygon points="373.16 275.68 304.69 315.13 301.65 313.37 370.12 273.93 373.16 275.68" style="fill:#e0e0e0"></polygon><path d="M280.53,320.42a47.56,47.56,0,0,0-11.83,10.13l-3-1.76a47.73,47.73,0,0,1,11.83-10.12l85.16-49.06,3,1.76Z" style="fill:#e0e0e0"></path><polygon points="358.22 267.05 286.6 308.31 283.56 306.55 355.18 265.3 358.22 267.05" style="fill:#e0e0e0"></polygon><path d="M265.58,311.79a47.56,47.56,0,0,0-11.83,10.13l-3-1.76A47.73,47.73,0,0,1,262.54,310L347.7,261l3,1.76Z" style="fill:#e0e0e0"></path><path d="M258.11,307.48a47.55,47.55,0,0,0-11.83,10.12l-3-1.75a47.38,47.38,0,0,1,11.83-10.13l85.16-49.05,3,1.75Z" style="fill:#e0e0e0"></path><path d="M250.63,303.16a47.56,47.56,0,0,0-11.83,10.13l-3-1.76a47.73,47.73,0,0,1,11.83-10.12l85.16-49.06,3,1.76Z" style="fill:#e0e0e0"></path><polygon points="328.32 249.79 263.8 286.96 260.75 285.21 325.28 248.04 328.32 249.79" style="fill:#e0e0e0"></polygon><path d="M235.69,294.53a47.42,47.42,0,0,0-11.84,10.13l-3-1.76a47.59,47.59,0,0,1,11.84-10.12l85.15-49.06,3,1.76Z" style="fill:#e0e0e0"></path><path d="M220.74,285.9A47.38,47.38,0,0,0,208.91,296l-3-1.76a47.55,47.55,0,0,1,11.83-10.12l85.16-49.06,3,1.76Z" style="fill:#e0e0e0"></path><path d="M336.09,345.26l-6.28,3.61A47.73,47.73,0,0,0,318,359l3,1.76a47.73,47.73,0,0,1,11.83-10.12l6.28-3.62Zm-10.33-19.91-18.37,10.58a47.73,47.73,0,0,0-11.83,10.12l3,1.75a47.55,47.55,0,0,1,11.83-10.12L328.8,327.1Zm-27.86-9.82L285,323a47.77,47.77,0,0,0-11.84,10.12l3,1.76A47.59,47.59,0,0,1,288,324.74L301,317.29Zm-18.08-6.82-9.8,5.64a47.56,47.56,0,0,0-11.83,10.13l3,1.75a47.55,47.55,0,0,1,11.83-10.12l9.8-5.65Zm-22.58-21.48-17.12,9.86a47.73,47.73,0,0,0-11.83,10.12l3,1.76a47.73,47.73,0,0,1,11.83-10.12L260.28,289Zm-23-4-9,5.2a47.38,47.38,0,0,0-11.83,10.13l3,1.75a47.55,47.55,0,0,1,11.83-10.12l9-5.2Z" style="fill:#e0e0e0"></path><g style="opacity:0.25"><path d="M336.09,345.26l-6.28,3.61A47.73,47.73,0,0,0,318,359l3,1.76a47.73,47.73,0,0,1,11.83-10.12l6.28-3.62Zm-10.33-19.91-18.37,10.58a47.73,47.73,0,0,0-11.83,10.12l3,1.75a47.55,47.55,0,0,1,11.83-10.12L328.8,327.1Zm-27.86-9.82L285,323a47.77,47.77,0,0,0-11.84,10.12l3,1.76A47.59,47.59,0,0,1,288,324.74L301,317.29Zm-18.08-6.82-9.8,5.64a47.56,47.56,0,0,0-11.83,10.13l3,1.75a47.55,47.55,0,0,1,11.83-10.12l9.8-5.65Zm-22.58-21.48-17.12,9.86a47.73,47.73,0,0,0-11.83,10.12l3,1.76a47.73,47.73,0,0,1,11.83-10.12L260.28,289Zm-23-4-9,5.2a47.38,47.38,0,0,0-11.83,10.13l3,1.75a47.55,47.55,0,0,1,11.83-10.12l9-5.2Z"></path></g><polygon points="313.37 241.16 240.53 283.13 237.48 281.37 310.33 239.41 313.37 241.16" style="fill:#e0e0e0"></polygon><path d="M213.26,281.59a47.73,47.73,0,0,0-11.83,10.12l-3-1.75a47.42,47.42,0,0,1,11.84-10.13l85.15-49,3,1.75Z" style="fill:#e0e0e0"></path><polygon points="443.48 308.67 443.04 307.55 421.6 320.42 443.48 308.67" style="fill:#e6e6e6"></polygon><polygon points="445.01 312.63 408.32 334.34 445.38 313.57 445.01 312.63" style="fill:#e6e6e6"></polygon><path d="M98.84,314.2c18-9.48,42-21.3,54.67-23.75,10.25-2,16.53-.6,20.36,1.58l0,0,145.19,83.82c-3.29-1.89-8.05-2.91-14.77-2.14,0,0-71.86-43.83-118.27-58.8S98.84,314.2,98.84,314.2Z" style="opacity:0.02"></path></g><polygon points="325.44 390.48 311.98 405.04 331.81 393.56 325.44 390.48" style="fill:#37474f"></polygon><polygon points="377.99 385.31 372.14 381.12 366.3 392.06 366.3 361.61 377.99 354.86 377.99 385.31" style="fill:#3C4048"></polygon><polygon points="377.99 385.31 372.14 381.12 366.3 392.06 366.3 361.61 377.99 354.86 377.99 385.31" style="opacity:0.25"></polygon></g></g><g id="freepik--Meaning--inject-36"><g id="freepik--meaning--inject-36"><path d="M182.06,165.48l3.4-7.47.32.19-3.4,7.47Z" style="fill:#455a64"></path><path d="M187.77,161.89v-4.17h.54v4.17Z" style="fill:#455a64"></path><path d="M191.9,164.71a1.32,1.32,0,0,1-.93-.45,2.53,2.53,0,0,1-.54-1.83,2.22,2.22,0,0,1,.61-1.66,1.32,1.32,0,0,1,2,0v-2.34h.65v6.25h-.65v-.64A1.48,1.48,0,0,1,191.9,164.71Zm-.35-3.56a1.85,1.85,0,0,0-.42,1.35,2.09,2.09,0,0,0,.35,1.41.79.79,0,0,0,.58.22.85.85,0,0,0,.58-.29,2,2,0,0,0,.41-1.41,1.78,1.78,0,0,0-.41-1.31.75.75,0,0,0-.55-.23A.77.77,0,0,0,191.55,161.15Z" style="fill:#455a64"></path><path d="M196.93,160.32v.61h-.35v3.14h.35v.61h-1.34v-.61h.35v-3.14h-.35v-.61Z" style="fill:#455a64"></path><path d="M200.17,162.37l-.71.8v1.54h-.64v-6.25h.64v3.84l1.61-2h.8l-1.25,1.53,1.47,2.86h-.74Z" style="fill:#455a64"></path><path d="M204.56,158.78a1.12,1.12,0,0,1,.87-.32.87.87,0,0,1,.7.29,1.49,1.49,0,0,1,.29.8h-.67a1,1,0,0,0-.13-.39.37.37,0,0,0-.26-.09.41.41,0,0,0-.35.16,1.16,1.16,0,0,0-.16.64l-.16,4.39a1.87,1.87,0,0,1-.32,1.15,1,1,0,0,1-.84.39,1,1,0,0,1-.73-.23,1.13,1.13,0,0,1-.29-.86h.64a.46.46,0,0,0,.13.35.26.26,0,0,0,.22.1.5.5,0,0,0,.35-.16,1.3,1.3,0,0,0,.23-.77l.1-4.3A2.29,2.29,0,0,1,204.56,158.78Z" style="fill:#455a64"></path><path d="M209.46,162.5c0-.71-.12-1.16-.38-1.35a.86.86,0,0,0-.64-.22.78.78,0,0,0-.58.22,1,1,0,0,0-.22.67h-.74a1.81,1.81,0,0,1,.48-1.09,1.46,1.46,0,0,1,1.06-.41,1.54,1.54,0,0,1,1.12.41,2.39,2.39,0,0,1,.61,1.77,2.35,2.35,0,0,1-.55,1.73,1.56,1.56,0,0,1-1.15.48,1.48,1.48,0,0,1-1-.39,2.21,2.21,0,0,1-.55-1.82Zm-1.79.51a1.09,1.09,0,0,0,.29.93.73.73,0,0,0,.57.22,1,1,0,0,0,.61-.32,1.36,1.36,0,0,0,.32-.83Z" style="fill:#455a64"></path><path d="M213.41,161.09a.7.7,0,0,0-.52-.2,1,1,0,0,0-.7.36,1.55,1.55,0,0,0-.45,1.15v2.31h-.64v-4.39h.64v.83a3.79,3.79,0,0,1,.38-.45,1.3,1.3,0,0,1,1-.38,1.11,1.11,0,0,1,.83.32,1.17,1.17,0,0,1,.32.86v3.21h-.64v-3.14A.66.66,0,0,0,213.41,161.09Z" style="fill:#455a64"></path><path d="M218.21,165.51a5,5,0,0,1,0-7.37l.35.35a4.52,4.52,0,0,0,0,6.67Z" style="fill:#455a64"></path><path d="M221.77,162.5c0-.71-.13-1.16-.38-1.35a.88.88,0,0,0-.65-.22.77.77,0,0,0-.57.22,1,1,0,0,0-.23.67h-.73a1.81,1.81,0,0,1,.48-1.09,1.44,1.44,0,0,1,1.05-.41,1.57,1.57,0,0,1,1.13.41,2.44,2.44,0,0,1,.61,1.77,2.39,2.39,0,0,1-.55,1.73,1.56,1.56,0,0,1-1.15.48,1.48,1.48,0,0,1-1-.39,2.25,2.25,0,0,1-.54-1.82ZM220,163a1.09,1.09,0,0,0,.28.93.76.76,0,0,0,.58.22,1,1,0,0,0,.61-.32,1.36,1.36,0,0,0,.32-.83Z" style="fill:#455a64"></path><path d="M223.5,165.51l-.35-.35a4.52,4.52,0,0,0,0-6.67l.35-.35a5,5,0,0,1,0,7.37Z" style="fill:#455a64"></path><path d="M230.26,160.32v.77c-.79-.15-1.36.26-1.73,1.25v2.37h-.64v-4.39h.64v.93A1.68,1.68,0,0,1,230.26,160.32Z" style="fill:#455a64"></path><path d="M233.47,158.46v.83h-.64v-.83Zm0,6.25h-.64v-4.39h.64Z" style="fill:#455a64"></path><path d="M235.39,165.48l3.4-7.47.32.19-3.4,7.47Z" style="fill:#455a64"></path><path d="M160.58,150.17l-.15-1.2a3.25,3.25,0,0,1-2.62,1.26c-2.21,0-3.79-1.78-3.79-4.67s1.86-4.83,4.07-4.83a2.88,2.88,0,0,1,2.36,1.14V138L159,137.8v-.73l3.43-.84.28.17-.08,2.64v10l1.22.21V150Zm-1.87-1.27a2.22,2.22,0,0,0,1.65-.77v-5.38a2.36,2.36,0,0,0-1.63-.71c-1.26,0-2.31,1.08-2.31,3.48S157.38,148.9,158.71,148.9Z" style="fill:#3C4048"></path><path d="M169.44,150H164.8v-.76L166,149c0-.92,0-2.12,0-2.92v-.88c0-1,0-1.61-.05-2.36l-1.33-.17v-.71l3.37-1.18.3.18-.06,2.65V146c0,.8,0,2,0,2.94l1.14.23Zm-3.71-12.31a1.35,1.35,0,0,1,1.43-1.35,1.34,1.34,0,1,1,0,2.68A1.35,1.35,0,0,1,165.73,137.65Z" style="fill:#3C4048"></path><path d="M173,145.24c0,2.27,1.14,3.51,2.81,3.51a2.82,2.82,0,0,0,2.36-1.26l.56.41a3.63,3.63,0,0,1-3.65,2.33c-2.57,0-4.44-1.71-4.44-4.73a4.54,4.54,0,0,1,4.68-4.77,3.23,3.23,0,0,1,3.41,2.58,1,1,0,0,1-1.07.83c-.67,0-1.1-.42-1.21-1.32l-.25-1.12a2.56,2.56,0,0,0-.67-.08C174.15,141.62,173,142.77,173,145.24Z" style="fill:#3C4048"></path><path d="M184.08,149a1.89,1.89,0,0,0,1.14-.47l.45.47a2.71,2.71,0,0,1-2.47,1.24,2.12,2.12,0,0,1-2.4-2.37c0-.56,0-1,0-1.74v-4h-1.39v-1L181,141l.71-2.57h1.52L183.1,141h2.25v1.14h-2.27v5.53C183.08,148.58,183.48,149,184.08,149Z" style="fill:#3C4048"></path><path d="M190.88,150h-4.65v-.76l1.24-.25c0-.92,0-2.12,0-2.92v-.88c0-1,0-1.61-.06-2.36l-1.33-.17v-.71l3.37-1.18.3.18-.05,2.65V146c0,.8,0,2,0,2.94l1.14.23Zm-3.71-12.31a1.42,1.42,0,1,1,1.42,1.33A1.34,1.34,0,0,1,187.17,137.65Z" style="fill:#3C4048"></path><path d="M192.08,145.48a4.53,4.53,0,1,1,9,0,4.53,4.53,0,1,1-9,0Zm6.59,0c0-2.58-.73-3.86-2.08-3.86s-2.06,1.28-2.06,3.86.72,3.81,2.06,3.81S198.67,148.09,198.67,145.5Z" style="fill:#3C4048"></path><path d="M211.62,144.08V146c0,.84,0,2,0,2.94l1.14.23V150h-4.63v-.76l1.2-.25c0-.92,0-2.08,0-2.92v-1.78c0-1.46-.37-1.95-1.31-1.95a3.27,3.27,0,0,0-2.1.94V146c0,.82,0,2,0,2.94l1.11.23V150h-4.63v-.76l1.22-.25c0-.92,0-2.12,0-2.92v-1c0-1,0-1.5-.06-2.25l-1.31-.17v-.71l3.13-1.18.3.18.13,1.45a4.27,4.27,0,0,1,3.18-1.63C210.7,140.73,211.62,141.76,211.62,144.08Z" style="fill:#3C4048"></path><path d="M219.12,148.78a3.41,3.41,0,0,1-2.72,1.45,2.28,2.28,0,0,1-2.49-2.37c0-1.19.65-2.09,3.35-3,.49-.16,1.14-.35,1.8-.52v-.53c0-1.74-.43-2.23-1.65-2.23a3.73,3.73,0,0,0-.77.08l-.22,1c-.11.9-.56,1.31-1.18,1.31a1,1,0,0,1-1.05-.84c.22-1.5,1.67-2.47,3.95-2.47s3.13,1,3.13,3.39v4.08c0,.6.21.85.54.85a.79.79,0,0,0,.66-.42l.43.38a1.94,1.94,0,0,1-1.93,1.18A1.76,1.76,0,0,1,219.12,148.78Zm-1.69.08c.51,0,.83-.19,1.63-.75v-3c-.52.17-1,.32-1.33.45-1.25.5-1.63,1.18-1.63,1.89A1.24,1.24,0,0,0,217.43,148.86Z" style="fill:#3C4048"></path><path d="M223.54,149.2l1.2-.23c0-.94,0-2.14,0-2.94v-1c0-1,0-1.5-.06-2.25l-1.31-.17v-.71l3.13-1.18.3.18.2,2.29c.55-1.61,1.63-2.47,2.61-2.47a1.46,1.46,0,0,1,1.48,1c0,.93-.47,1.46-1.22,1.46a1.64,1.64,0,0,1-1.27-.68l-.17-.18a4.58,4.58,0,0,0-1.43,2.32V146c0,.79,0,1.95,0,2.87l1.54.3V150h-5Z" style="fill:#3C4048"></path><path d="M231.45,153.21a1.34,1.34,0,0,1,1.4-1,1.8,1.8,0,0,1,1.48.79l.11.15a6.06,6.06,0,0,0,1.5-2.45l0-.12-3.56-8.67-1-.15V141h4.91v.75l-1.48.2,2.1,5.76,2-5.74-1.42-.22V141h3.6v.75l-1.05.2L237,150.3c-1.08,2.87-2,4.22-3.67,4.22C232.31,154.52,231.48,154,231.45,153.21Z" style="fill:#3C4048"></path><path d="M159.06,159.17v5.6h-.85L155.12,161v3.79h-1v-5.6h.86L158,163v-3.79Z" style="fill:#e0e0e0"></path><path d="M161.64,164.48a2.75,2.75,0,0,1-1.08-1,3,3,0,0,1,0-3,2.75,2.75,0,0,1,1.08-1,3.41,3.41,0,0,1,3.09,0,2.75,2.75,0,0,1,1.08,1,3,3,0,0,1,0,3,2.75,2.75,0,0,1-1.08,1,3.41,3.41,0,0,1-3.09,0Zm2.55-.79a1.86,1.86,0,0,0,.71-.71,2.17,2.17,0,0,0,0-2,1.86,1.86,0,0,0-.71-.71,2.1,2.1,0,0,0-1-.25,2.06,2.06,0,0,0-1,.25,1.86,1.86,0,0,0-.71.71,2.17,2.17,0,0,0,0,2,1.86,1.86,0,0,0,.71.71,2.06,2.06,0,0,0,1,.25A2.1,2.1,0,0,0,164.19,163.69Z" style="fill:#e0e0e0"></path><path d="M167.91,164.2a2.52,2.52,0,0,1-.65-1.87v-3.16h1v3.12c0,1.1.47,1.65,1.42,1.65s1.42-.55,1.42-1.65v-3.12h1v3.16a2.56,2.56,0,0,1-.64,1.87,2.83,2.83,0,0,1-3.61,0Z" style="fill:#e0e0e0"></path><path d="M178.6,159.17v5.6h-.86L174.65,161v3.79h-1v-5.6h.86l3.08,3.79v-3.79Z" style="fill:#e0e0e0"></path><path d="M155,170.17v4.08h-.76v-3.44h-.86v-.64Z" style="fill:#e0e0e0"></path><path d="M155.92,174.15a.46.46,0,0,1-.14-.34.47.47,0,0,1,.14-.35.48.48,0,0,1,.34-.14.46.46,0,0,1,.34.14.47.47,0,0,1,.14.35.46.46,0,0,1-.14.34.48.48,0,0,1-.34.14A.49.49,0,0,1,155.92,174.15Z" style="fill:#e0e0e0"></path><path d="M273.88,174.25H160.34a1.36,1.36,0,0,1-1.36-1.36h0a1.35,1.35,0,0,1,1.36-1.35H273.88a1.34,1.34,0,0,1,1.35,1.35h0A1.35,1.35,0,0,1,273.88,174.25Z" style="fill:#e0e0e0"></path><path d="M156.54,199.52v.64h-3v-.5l1.61-1.54a1.64,1.64,0,0,0,.37-.46.81.81,0,0,0,.1-.39.5.5,0,0,0-.19-.43.92.92,0,0,0-.57-.15,1.14,1.14,0,0,0-1,.42l-.53-.41a1.51,1.51,0,0,1,.64-.49,2.21,2.21,0,0,1,.91-.18,1.67,1.67,0,0,1,1.06.31,1.05,1.05,0,0,1,.39.86,1.31,1.31,0,0,1-.14.62,2.36,2.36,0,0,1-.53.67l-1.09,1Z" style="fill:#e0e0e0"></path><path d="M157.15,200.07a.51.51,0,0,1,0-.7.47.47,0,0,1,.34-.13.45.45,0,0,1,.34.13.51.51,0,0,1,0,.7.48.48,0,0,1-.34.14A.49.49,0,0,1,157.15,200.07Z" style="fill:#e0e0e0"></path><path d="M273.88,200.16H160.34a1.35,1.35,0,0,1-1.36-1.35h0a1.36,1.36,0,0,1,1.36-1.36H273.88a1.35,1.35,0,0,1,1.35,1.36h0A1.34,1.34,0,0,1,273.88,200.16Z" style="fill:#e0e0e0"></path><path d="M273.88,180.94H154.69a1.36,1.36,0,0,1-1.36-1.36h0a1.36,1.36,0,0,1,1.36-1.36H273.88a1.35,1.35,0,0,1,1.35,1.36h0A1.35,1.35,0,0,1,273.88,180.94Z" style="fill:#e0e0e0"></path><path d="M273.88,187.62H154.69a1.36,1.36,0,0,1-1.36-1.35h0a1.36,1.36,0,0,1,1.36-1.36H273.88a1.35,1.35,0,0,1,1.35,1.36h0A1.35,1.35,0,0,1,273.88,187.62Z" style="fill:#e0e0e0"></path><path d="M273.88,206.85H154.69a1.36,1.36,0,0,1-1.36-1.36h0a1.36,1.36,0,0,1,1.36-1.35H273.88a1.35,1.35,0,0,1,1.35,1.35h0A1.35,1.35,0,0,1,273.88,206.85Z" style="fill:#e0e0e0"></path><path d="M336.44,251.94a3.75,3.75,0,1,1-3.75-3.76A3.75,3.75,0,0,1,336.44,251.94Z" style="fill:#3C4048"></path><polygon points="332.44 252.37 264.87 213.36 153.33 213.36 153.33 212.36 265.14 212.36 265.25 212.43 332.94 251.5 332.44 252.37" style="fill:#3C4048"></polygon></g></g><g id="freepik--Button--inject-36"><g id="freepik--AZ--inject-36"><path d="M313.89,445.37l34.9,20.17a5,5,0,0,0,4.54,0l111.13-64.06a5,5,0,0,0,2.26-3.93v-1.63a5.05,5.05,0,0,0-2.28-3.93l-35-20.12a5,5,0,0,0-4.53,0l-111.06,64a5,5,0,0,0-2.25,3.93v1.63A5.05,5.05,0,0,0,313.89,445.37Z" style="fill:#f0f0f0"></path><path d="M425.06,371.79c1.72-1,3.52-.42,5.26.58l33.24,19.13c1.72,1,1.73,2.62,0,3.62l-109.4,63.06h0a6.28,6.28,0,0,1-6.25,0l-33.27-19.12a2.09,2.09,0,0,1,0-3.62h0Z" style="fill:#fafafa"></path><path d="M314.63,437.86a1.22,1.22,0,0,1,.45-1.67l110.41-63.64c1.17-.68,2.53-.5,4.39.58l33.24,19.12a2.1,2.1,0,0,1,.75.68c.39.68-.39,1.23-.75,1.43l-109.4,63.06a5.37,5.37,0,0,1-5.37,0L315.08,438.3a1.19,1.19,0,0,1-.45-.44m-.76.44a2.16,2.16,0,0,0,.77.76l33.27,19.12a6.28,6.28,0,0,0,6.25,0l109.4-63.06c1.23-.71,1.58-1.73,1.07-2.62a2.82,2.82,0,0,0-1.07-1l-33.24-19.13c-1.74-1-3.54-1.58-5.26-.58L314.64,435.44a2.1,2.1,0,0,0-.77,2.86Z" style="fill:#e0e0e0"></path><path d="M313.87,435.88l.77-.44a2.09,2.09,0,0,0,0,3.62l33.28,19.12A6,6,0,0,0,351,459h.08v7.07a4.59,4.59,0,0,1-2.31-.55l-34.91-20.16a5.07,5.07,0,0,1-2.28-3.92v-1.64A5,5,0,0,1,313.87,435.88Z" style="fill:#e6e6e6"></path><path d="M391.75,426a3.09,3.09,0,0,0-.64-.21l-28.46-8a6,6,0,0,0-1.23-.14,2.63,2.63,0,0,0-1.39.38l-5.44,3.14c-.45.26-.66.52-.65.8a1.13,1.13,0,0,0,.25.71L368,439.16a1.16,1.16,0,0,0,.37.37,1.42,1.42,0,0,0,.74.18,1.45,1.45,0,0,0,.74-.18l4.23-2.44c.44-.26.67-.5.67-.72a.67.67,0,0,0-.21-.52l-1.84-2.15,8.93-5.16,3.72,1.07a2.82,2.82,0,0,0,.91.12,2.48,2.48,0,0,0,1.24-.39l4.23-2.44a.54.54,0,0,0,.31-.43A.52.52,0,0,0,391.75,426Zm-22.49,3.65-5.34-6.22,10.78,3.08Zm28.8-16.13-3.39-2a1.76,1.76,0,0,0-.9-.21,1.83,1.83,0,0,0-.91.21l-10.57,6.11a.61.61,0,0,0-.37.52.62.62,0,0,0,.37.53l3.39,1.95a1.69,1.69,0,0,0,.9.22,1.73,1.73,0,0,0,.91-.22l10.57-6.1a.56.56,0,0,0,0-1.05Zm29.61-8.45-3.56-2.05a1.79,1.79,0,0,0-.9-.22,1.83,1.83,0,0,0-.91.22l-10.61,6.12-2-13.55a1.14,1.14,0,0,0-.67-.89l-3.39-1.95a1.73,1.73,0,0,0-.91-.22,1.69,1.69,0,0,0-.9.22l-17.32,10a.55.55,0,0,0,0,1l3.55,2.06a2.08,2.08,0,0,0,1.82,0l10-5.78,1.91,13.51a1.42,1.42,0,0,0,.1.45,1.33,1.33,0,0,0,.57.52l3.39,2a2.08,2.08,0,0,0,1.82,0l18-10.39a.56.56,0,0,0,0-1.05Z" style="fill:#e0e0e0"></path></g></g></svg>
